<svg width="500" height="500" viewBox="0 0 500 500" fill="none" xmlns="http://www.w3.org/2000/svg">
<g clip-path="url(#clip0_0_3)">
<rect width="500" height="500" fill="white"/>
<rect width="500" height="500" fill="black"/>
<path d="M125 359.327V298.767C144.858 312.224 166.702 322.707 190.532 330.215C214.504 337.723 236.631 341.477 256.915 341.477C265.426 341.477 272.518 341.336 278.191 341.052C284.007 340.627 289.61 339.848 295 338.715C300.532 337.582 304.858 336.023 307.979 334.04C311.241 332.057 313.794 329.365 315.638 325.966C317.482 322.566 318.404 318.458 318.404 313.641C318.404 303.583 313.865 296.004 304.787 290.905C297.553 286.938 281.95 282.263 257.979 276.88C256.56 276.455 254.362 275.959 251.383 275.393C245.567 273.976 241.028 272.914 237.766 272.205C197.908 263.139 169.823 252.089 153.511 239.057C137.34 225.882 129.255 207.325 129.255 183.384C129.255 156.044 139.184 135.644 159.043 122.187C178.901 108.729 206.348 102 241.383 102C258.972 102 278.05 104.337 298.617 109.012C319.326 113.687 336.986 119.637 351.596 126.861V184.234C330.177 176.301 309.043 170.068 288.191 165.535C267.34 161.002 249.823 158.735 235.638 158.735C229.255 158.735 223.865 158.877 219.468 159.16C215.071 159.443 210.603 160.081 206.064 161.073C201.525 161.922 197.908 163.197 195.213 164.897C192.518 166.456 190.319 168.651 188.617 171.485C186.915 174.318 186.064 177.718 186.064 181.684C186.064 185.084 186.631 188.13 187.766 190.821C188.901 193.371 190.816 195.709 193.511 197.833C196.206 199.958 199.184 201.8 202.447 203.358C205.709 204.916 210.106 206.546 215.638 208.246C221.17 209.804 226.56 211.22 231.809 212.495C237.057 213.77 243.794 215.329 252.021 217.17C252.447 217.312 252.801 217.383 253.085 217.383C264.574 219.933 274.362 222.27 282.447 224.395C290.674 226.52 298.972 228.928 307.34 231.62C315.851 234.311 322.943 237.073 328.617 239.907C334.433 242.598 340.035 245.715 345.426 249.256C350.957 252.656 355.355 256.41 358.617 260.518C362.021 264.626 365 269.23 367.553 274.33C370.248 279.43 372.163 285.096 373.298 291.329C374.433 297.421 375 304.221 375 311.729C375 331.419 369.894 347.852 359.681 361.027C349.468 374.059 335.709 383.48 318.404 389.288C301.241 395.096 280.745 398 256.915 398C235.071 398 211.241 394.388 185.426 387.163C159.61 379.797 139.468 370.518 125 359.327Z" fill="white"/>
</g>
<defs>
<clipPath id="clip0_0_3">
<rect width="500" height="500" fill="white"/>
</clipPath>
</defs>
</svg>
