<svg xmlns="http://www.w3.org/2000/svg" width="500" height="500" fill="none"><g clip-path="url(#a)"><path fill="#fff" d="M0 0h500v500H0z"/><path fill="#000" d="M0 0h500v500H0z"/><path fill="#fff" d="M125 359.327v-60.56q29.787 20.186 65.532 31.448 35.958 11.262 66.383 11.262 12.767 0 21.276-.425 8.724-.637 16.809-2.337 8.298-1.7 12.979-4.675 4.893-2.975 7.659-8.074t2.766-12.325q0-15.087-13.617-22.736-10.851-5.95-46.808-14.025-2.128-.638-6.596-1.487-8.724-2.125-13.617-3.188-59.787-13.6-84.255-33.148-24.256-19.762-24.256-55.673 0-41.01 29.788-61.197Q188.83 102 241.383 102q26.383 0 57.234 7.012 31.064 7.013 52.979 17.849v57.373q-32.128-11.9-63.405-18.699-31.276-6.8-52.553-6.8-9.575 0-16.17.425t-13.404 1.913q-6.808 1.274-10.851 3.824-4.043 2.338-6.596 6.588t-2.553 10.199q0 5.1 1.702 9.137 1.703 3.826 5.745 7.012 4.042 3.188 8.936 5.525 4.893 2.337 13.191 4.888a462 462 0 0 0 16.171 4.249q7.872 1.913 20.212 4.675.638.213 1.064.213 17.234 3.825 29.362 7.012a443 443 0 0 1 24.893 7.225q12.766 4.036 21.277 8.287a130 130 0 0 1 16.809 9.349q8.297 5.1 13.191 11.262 5.106 6.162 8.936 13.812 4.043 7.65 5.745 16.999 1.702 9.138 1.702 20.4 0 29.535-15.319 49.298-15.32 19.548-41.277 28.261Q292.66 398 256.915 398q-32.766 0-71.489-10.837-38.724-11.05-60.426-27.836"/></g><defs><clipPath id="a"><path fill="#fff" d="M0 0h500v500H0z"/></clipPath></defs></svg>